# xmcd CD database file
#
# Track frame offsets:
#	150
#	13782
#	29250
#	43620
#	55812
#	70182
#	85592
#	105095
#	121345
#	135095
#	149700
#	161085
#	175852
#	189020
#	201122
#	216742
#	228740
#	241507
#	255750
#	273997
#	287627
#	300947
#
# Disc length: 4169 seconds
#
# Revision: 0
# Processed by: cddbd v1.5.2PL0 Copyright (c) Steve Scherf et al.
# Submitted via: CDex 1.70beta2
#
DISCID=22104716
DTITLE=Ben Webster - Best of Jazz:  His Best Recordings  1931-1946
DYEAR=1997
DGENRE=Jazz
TTITLE0=Blanche Calloway and Her Joy Boys - Just a Crazy Song (Hi, Hi, Hi)
TTITLE1=Bennie Moten's Kansas City Orchestra - Toby
TTITLE2=Benny Carter and His Orchestra - Dream Lullaby
TTITLE3=Lionel Hampton and His Orchestra - Early Session Hop
TTITLE4=Duke Ellington and His Famous Orchestra - Cottontail
TTITLE5=Duke Ellington and His Orchestra - Sepia Panorama
TTITLE6=Duke Ellington and His Orchestra - Stardust
TTITLE7=Duke Ellington and His Orchestra - Just Settin' and A-Rockin'
TTITLE8=Rex Stewart and His Orchestra - Some Saturday
TTITLE9=Duke Ellington and His Famous Orchestra - Five O'Clock Drag
TTITLE10=Duke Ellington and His Famous Orchestra - Raincheck
TTITLE11=Duke Ellington and His Famous Orchestra - I Don't Know What Kind of Blues I Got
TTITLE12=Duke Ellington and His Famous Orchestra - Chelsea Bridge
TTITLE13=Duke Ellington and His Famous Orchestra - The "C" Jam Blues
TTITLE14=Duke Ellington and His Famous Orchestra - What Am I Here For?
TTITLE15=Slim Gaillard and His FFF Boys - Ra Da Da Da
TTITLE16=Duke Ellington and His Famous Orchestra - Main Stem
TTITLE17=Ben Webster and His Orchestra - Woke Up Clipped
TTITLE18=James P. Johnson and His Blue Note Jazz Men - Victory Stride
TTITLE19=Ben Webster - Kat's Fur
TTITLE20=Tony Scott and the Down Beat Club Septet - All Too Soon
TTITLE21=Benny Carter and His Chocolate Dandies - Sweet Georgia Brown
EXTD=YEAR: 1997
EXTT0=
EXTT1=
EXTT2=
EXTT3=
EXTT4=
EXTT5=
EXTT6=
EXTT7=
EXTT8=
EXTT9=
EXTT10=
EXTT11=
EXTT12=
EXTT13=
EXTT14=
EXTT15=
EXTT16=
EXTT17=
EXTT18=
EXTT19=
EXTT20=
EXTT21=
PLAYORDER=
